<svg width="1079" height="137" viewBox="0 0 1079 137" fill="none" xmlns="http://www.w3.org/2000/svg">
<g filter="url(#filter0_d_241_53)">
<path d="M28.192 42.368L28.448 42.496L34.336 37.888C34.848 37.504 35.744 37.376 36.128 37.376C36.64 37.376 37.28 37.504 37.92 38.4C39.712 40.704 41.76 43.392 45.216 43.392C51.36 43.392 53.664 35.968 53.664 25.344C53.664 14.464 51.104 3.84 41.376 3.84C33.312 3.84 28.192 10.368 28.192 24.192V42.368ZM4.00002 91.008V87.296H10.528V31.744C10.528 13.312 25.376 0.128002 42.656 0.128002C61.088 0.128002 71.2 12.288 71.2 26.496C71.2 38.4 63.136 48.896 49.824 48.896C42.016 48.896 39.2 45.568 36.768 42.88C36.128 42.112 35.744 41.856 35.36 41.856C34.976 41.856 34.592 41.984 33.824 42.624L28.192 46.848V87.296H34.592V91.008H4.00002ZM83.424 6.016V2.304H114.144V6.016H107.616L126.816 85.504H130.4C133.856 64.896 137.824 41.344 141.28 22.784C143.072 12.544 147.552 3.8147e-06 161.248 3.8147e-06C165.088 3.8147e-06 169.696 1.408 173.408 3.072C169.952 9.85601 168.544 14.592 167.648 20.096C167.52 21.376 166.752 22.272 166.112 22.272C165.344 22.272 162.784 19.84 160.352 17.536C157.792 15.104 155.36 14.208 153.312 14.208C150.112 14.208 147.552 17.536 146.144 23.936C142.688 40.192 139.36 60.032 136.288 79.232C133.856 94.08 129.632 115.328 126.688 127.232C124.256 127.872 121.44 128.128 119.008 128.128C116.192 128.128 109.92 125.952 109.92 124.416C109.92 123.904 110.688 123.008 111.584 121.984C119.52 113.152 126.048 103.68 129.376 91.008H110.304L89.952 6.016H83.424ZM182.295 46.592C182.295 20.992 196.503 3.8147e-06 219.159 3.8147e-06C238.615 3.8147e-06 251.159 16.384 253.975 34.176H259.223V37.888H229.527V34.176H236.055V21.632C236.055 9.34401 228.631 3.712 219.159 3.712C209.687 3.712 202.263 9.34401 202.263 21.504V71.68C202.263 83.84 209.687 89.344 219.159 89.344C228.631 89.344 236.055 83.84 236.055 71.552V59.008H229.527V55.296H259.223V59.008H253.975C251.159 76.8 238.615 93.184 219.159 93.184C196.503 93.184 182.295 72.192 182.295 46.592ZM278.475 46.592C278.475 20.992 292.683 3.8147e-06 315.339 3.8147e-06C334.795 3.8147e-06 347.339 16.384 350.155 34.176H355.403V37.888H325.707V34.176H332.235V21.632C332.235 9.34401 324.811 3.712 315.339 3.712C305.867 3.712 298.443 9.34401 298.443 21.504V71.68C298.443 83.84 305.867 89.344 315.339 89.344C324.811 89.344 332.235 83.84 332.235 71.552V59.008H325.707V55.296H355.403V59.008H350.155C347.339 76.8 334.795 93.184 315.339 93.184C292.683 93.184 278.475 72.192 278.475 46.592ZM373.631 91.008V87.296H380.159V6.016H373.631V2.304H404.223V6.016H397.695V42.368H401.919C407.295 42.368 411.775 41.984 415.231 38.912C419.839 34.816 419.839 26.752 419.839 18.176V6.016H414.463V2.304H445.439V6.016H439.551C439.423 11.648 437.887 22.4 433.535 29.184C428.287 37.376 424.063 40.832 415.231 43.52V44.032C427.135 45.44 438.527 49.152 441.471 62.208C442.111 65.152 442.367 71.168 442.367 76.544V87.296H448.767V91.008H416.127V87.296H422.655V75.008C422.655 71.168 422.399 63.104 421.759 60.032C420.095 51.712 417.023 46.08 403.711 46.08H397.695V87.296H404.223V91.008H373.631ZM463.888 91.008V87.296C466.832 86.912 469.776 85.632 471.312 84.352C474 81.92 475.024 79.232 475.024 75.776C470.032 74.496 467.216 70.272 467.216 65.92C467.216 62.464 469.008 58.368 473.616 56.448V56.064C470.8 53.248 466.448 48.512 466.448 41.472C466.448 32.768 472.976 26.24 487.44 20.992C497.936 17.28 506 10.112 506 7.296C506 6.528 505.744 6.016 503.824 6.016H500.496V2.304H535.184V6.016H528.656V87.296H535.184V91.008H504.592V87.296H510.992V28.928L510.736 28.8C509.968 30.464 509.2 32.256 507.536 34.304C504.72 38.144 501.776 40.32 498.832 42.624C496.656 44.288 494.224 46.208 492.048 48.384C488.208 52.224 486.672 54.272 483.728 58.368C485.776 60.16 487.184 62.72 487.184 65.92C487.184 70.272 484.24 74.496 479.248 75.776C479.248 79.232 480.272 81.92 482.96 84.352C484.496 85.632 487.44 86.912 490.384 87.296V91.008H463.888ZM475.664 49.92C475.664 51.968 476.304 54.528 477.2 55.936C478.352 55.936 479.632 56.064 480.656 56.448C483.472 52.608 485.008 50.688 488.592 46.976C491.152 44.288 493.968 41.728 496.784 39.68C499.856 37.376 501.904 35.584 504.464 32.64C508.304 27.904 510.992 23.552 510.992 17.536V8.06401H510.352C507.408 13.568 500.88 18.944 494.736 22.144C488.976 25.216 484.368 28.672 480.272 34.688C476.816 39.808 475.664 46.08 475.664 49.92ZM551.925 91.008V87.296H557.557C557.557 78.08 557.813 70.784 562.037 63.36C566.773 55.168 572.661 50.688 582.517 45.696V45.056C573.429 43.904 559.093 40.192 559.093 23.68C559.093 6.784 570.869 2.304 582.389 2.304H625.269V6.016H618.741V87.296H625.269V91.008H594.549V87.296H601.077V46.464H593.397C584.437 46.464 579.189 56.96 577.909 65.024C576.885 71.68 576.885 78.976 576.885 87.296H582.645V91.008H551.925ZM577.909 24.192C577.909 41.984 584.821 42.752 593.909 42.752H601.077V6.016H591.989C583.669 6.016 577.909 6.528 577.909 24.192ZM680.871 88.448C680.871 87.552 681.639 87.296 682.663 87.296H694.951L715.815 11.904L714.407 6.016H705.191V2.304H740.903V6.016H732.455L750.759 87.296H763.559C764.583 87.296 764.967 87.68 764.967 88.192C764.967 88.832 764.583 89.856 764.327 90.368C760.871 97.152 759.719 106.368 759.335 112.128C759.335 112.896 758.055 113.28 757.287 113.28C756.647 113.28 755.367 113.024 755.239 112.128C754.471 108.288 752.679 102.784 749.735 98.688C746.535 94.336 741.159 91.008 735.143 91.008H711.079C705.063 91.008 699.943 94.208 696.743 98.56C693.799 102.656 692.263 109.056 691.751 112C691.623 112.896 690.727 113.28 689.831 113.28C689.063 113.28 687.655 112.896 687.655 112.128C687.015 105.856 684.711 98.816 682.151 92.8C681.511 91.136 680.871 89.472 680.871 88.448ZM698.919 87.296H732.711L717.607 19.84L698.919 87.296ZM768.114 6.016V2.304H798.834V6.016H792.306L811.506 85.504H815.09C818.546 64.896 822.514 41.344 825.97 22.784C827.762 12.544 832.242 3.8147e-06 845.938 3.8147e-06C849.778 3.8147e-06 854.386 1.408 858.098 3.072C854.642 9.85601 853.234 14.592 852.338 20.096C852.21 21.376 851.442 22.272 850.802 22.272C850.034 22.272 847.474 19.84 845.042 17.536C842.482 15.104 840.05 14.208 838.002 14.208C834.802 14.208 832.242 17.536 830.834 23.936C827.378 40.192 824.05 60.032 820.978 79.232C818.546 94.08 814.322 115.328 811.378 127.232C808.946 127.872 806.13 128.128 803.698 128.128C800.882 128.128 794.61 125.952 794.61 124.416C794.61 123.904 795.378 123.008 796.274 121.984C804.21 113.152 810.738 103.68 814.066 91.008H794.994L774.642 6.016H768.114ZM872.961 91.008V87.296H879.489V6.016H872.961V2.304H903.553V6.016H897.025V87.296H920.449V6.016H913.921V2.304H944.513V6.016H938.113V87.296H961.409V6.016H955.009V2.304H985.601V6.016H979.073V87.296H985.601V91.008H872.961ZM1003.09 91.008V87.296C1006.04 86.912 1008.98 85.632 1010.52 84.352C1013.21 81.92 1014.23 79.232 1014.23 75.776C1009.24 74.496 1006.42 70.272 1006.42 65.92C1006.42 62.464 1008.21 58.368 1012.82 56.448V56.064C1010.01 53.248 1005.65 48.512 1005.65 41.472C1005.65 32.768 1012.18 26.24 1026.65 20.992C1037.14 17.28 1045.21 10.112 1045.21 7.296C1045.21 6.528 1044.95 6.016 1043.03 6.016H1039.7V2.304H1074.39V6.016H1067.86V87.296H1074.39V91.008H1043.8V87.296H1050.2V28.928L1049.94 28.8C1049.17 30.464 1048.41 32.256 1046.74 34.304C1043.93 38.144 1040.98 40.32 1038.04 42.624C1035.86 44.288 1033.43 46.208 1031.25 48.384C1027.41 52.224 1025.88 54.272 1022.93 58.368C1024.98 60.16 1026.39 62.72 1026.39 65.92C1026.39 70.272 1023.45 74.496 1018.45 75.776C1018.45 79.232 1019.48 81.92 1022.17 84.352C1023.7 85.632 1026.65 86.912 1029.59 87.296V91.008H1003.09ZM1014.87 49.92C1014.87 51.968 1015.51 54.528 1016.41 55.936C1017.56 55.936 1018.84 56.064 1019.86 56.448C1022.68 52.608 1024.21 50.688 1027.8 46.976C1030.36 44.288 1033.17 41.728 1035.99 39.68C1039.06 37.376 1041.11 35.584 1043.67 32.64C1047.51 27.904 1050.2 23.552 1050.2 17.536V8.06401H1049.56C1046.61 13.568 1040.09 18.944 1033.94 22.144C1028.18 25.216 1023.57 28.672 1019.48 34.688C1016.02 39.808 1014.87 46.08 1014.87 49.92Z" fill="#FEE4A8"/>
</g>
<defs>
<filter id="filter0_d_241_53" x="0" y="0" width="1078.39" height="136.128" filterUnits="userSpaceOnUse" color-interpolation-filters="sRGB">
<feFlood flood-opacity="0" result="BackgroundImageFix"/>
<feColorMatrix in="SourceAlpha" type="matrix" values="0 0 0 0 0 0 0 0 0 0 0 0 0 0 0 0 0 0 127 0" result="hardAlpha"/>
<feOffset dy="4"/>
<feGaussianBlur stdDeviation="2"/>
<feComposite in2="hardAlpha" operator="out"/>
<feColorMatrix type="matrix" values="0 0 0 0 0 0 0 0 0 0 0 0 0 0 0 0 0 0 0.25 0"/>
<feBlend mode="normal" in2="BackgroundImageFix" result="effect1_dropShadow_241_53"/>
<feBlend mode="normal" in="SourceGraphic" in2="effect1_dropShadow_241_53" result="shape"/>
</filter>
</defs>
</svg>
